<svg xmlns="http://www.w3.org/2000/svg" viewBox="0 0 420 210" role="img" aria-labelledby="title desc">
  <title id="title">ZEST</title>
  <desc id="desc">Logo ZEST Zone CIMA assurance souple</desc>
  <defs>
    <linearGradient id="green" x1="0" y1="0" x2="1" y2="1">
      <stop offset="0" stop-color="#9bd14b"/>
      <stop offset="0.56" stop-color="#079071"/>
      <stop offset="1" stop-color="#006b62"/>
    </linearGradient>
    <linearGradient id="orange" x1="0" y1="0" x2="1" y2="1">
      <stop offset="0" stop-color="#ff9b1a"/>
      <stop offset="1" stop-color="#f36c11"/>
    </linearGradient>
  </defs>

  <rect width="420" height="210" fill="#fff"/>
  <g transform="translate(18 19)">
    <path d="M77 0c20 16 45 25 75 25 4 55-7 102-31 139-13 20-28 35-44 44-16-9-31-24-44-44C9 127-2 80 2 25 32 25 57 16 77 0z" fill="none" stroke="url(#green)" stroke-width="15" stroke-linejoin="round"/>
    <path d="M28 97C38 44 88 37 126 48 87 59 74 89 75 131 51 128 35 116 28 97z" fill="url(#green)" opacity=".92"/>
    <path d="M23 79C65 42 111 34 142 55 131 48 107 55 78 77 50 98 34 126 44 154 18 133 6 101 23 79z" fill="none" stroke="url(#orange)" stroke-width="15" stroke-linecap="round"/>
    <path d="M133 31c24 16 27 47 7 76-21 32-61 44-95 30 34 2 62-10 79-34 17-25 19-51 9-72z" fill="url(#orange)" opacity=".96"/>
    <path d="M52 156c26 14 57 13 87-6-12 22-34 41-62 56-11-6-20-13-25-50z" fill="url(#green)" opacity=".9"/>
  </g>

  <g transform="translate(188 57)">
    <text x="0" y="74" font-family="Inter, Segoe UI, Arial, sans-serif" font-size="86" font-weight="800" fill="url(#green)">Zest</text>
    <text x="3" y="112" font-family="Inter, Segoe UI, Arial, sans-serif" font-size="23" font-weight="700" fill="#087a64">ZONE CIMA - ASSURANCE SOUPLE</text>
  </g>
</svg>
